<?xml version="1.0" encoding="UTF-8"?>
<svg width="20px" height="26px" viewBox="0 0 20 26" version="1.1" xmlns="http://www.w3.org/2000/svg" xmlns:xlink="http://www.w3.org/1999/xlink">
    <!-- Generator: Sketch 44.1 (41455) - http://www.bohemiancoding.com/sketch -->
    <title>clik_icon_activo</title>
    <desc>Created with Sketch.</desc>
    <defs>
        <rect id="path-1" x="0" y="0" width="28" height="28"></rect>
    </defs>
    <g id="Page-1" stroke="none" stroke-width="1" fill="none" fill-rule="evenodd">
        <g id="Desktop-HD-Copy" transform="translate(-434.000000, -767.000000)">
            <g id="clik_icon_activo" transform="translate(430.000000, 766.000000)">
                <mask id="mask-2" fill="white">
                    <use xlink:href="#path-1"></use>
                </mask>
                <g id="Mask"></g>
                <path d="M10.9333333,6.77777778 C10.9333333,5.98003314 11.5668352,5.33333333 12.3482993,5.33333333 C13.1297635,5.33333333 13.7632653,5.98003314 13.7632653,6.77777778 L13.7632653,13.2344444 L15.4753741,13.4222222 L22.4653061,16.5855556 C23.2152381,16.9322222 23.6680272,17.6977778 23.6680272,18.5355556 L23.6680272,24.8333333 C23.6255782,26.0177778 22.7058503,26.9566667 21.5455782,27 L12.3482993,27 C11.8106122,27 11.3012245,26.7833333 10.9333333,26.3788889 L4,20.3122222 L5.04707483,19.2 C5.31591837,18.8966667 5.69795918,18.7377778 6.09414966,18.7377778 L6.40544218,18.7377778 L10.9333333,21.2222222 L10.9333333,6.77777778 L10.9333333,6.77777778 Z M12.3482993,1 C15.4741559,1 18.0081633,3.58679922 18.0081633,6.77777778 C18.0081633,8.94444444 16.8761905,10.7788889 15.1782313,11.7755556 L15.1782313,10.0133333 C16.0413605,9.21888889 16.5931973,8.06333333 16.5931973,6.77777778 C16.5931973,4.38454386 14.6926917,2.44444444 12.3482993,2.44444444 C10.0039069,2.44444444 8.10340136,4.38454386 8.10340136,6.77777778 C8.10340136,8.06333333 8.6552381,9.21888889 9.51836735,10.0133333 L9.51836735,11.7755556 C7.82040816,10.7788889 6.68843537,8.94444444 6.68843537,6.77777778 C6.68843537,3.58679922 9.22244278,1 12.3482993,1 Z" id="Shape" fill="#00AA96" fill-rule="nonzero" mask="url(#mask-2)"></path>
            </g>
        </g>
    </g>
</svg>