<?xml version="1.0" encoding="UTF-8"?>
<svg width="24px" height="24px" viewBox="0 0 24 24" version="1.1" xmlns="http://www.w3.org/2000/svg" xmlns:xlink="http://www.w3.org/1999/xlink">
    <!-- Generator: Sketch 44.1 (41455) - http://www.bohemiancoding.com/sketch -->
    <title>comment_icon</title>
    <desc>Created with Sketch.</desc>
    <defs>
        <rect id="path-1" x="0" y="0" width="28" height="28"></rect>
    </defs>
    <g id="Page-1" stroke="none" stroke-width="1" fill="none" fill-rule="evenodd">
        <g id="Desktop-HD-Copy" transform="translate(-862.000000, -768.000000)">
            <g id="comment_icon" transform="translate(860.000000, 766.000000)">
                <mask id="mask-2" fill="white">
                    <use xlink:href="#path-1"></use>
                </mask>
                <g id="Mask"></g>
                <path d="M25.988,4.4 C25.988,3.08 24.92,2 23.6,2 L4.4,2 C3.08,2 2,3.08 2,4.4 L2,18.8 C2,20.12 3.08,21.2 4.4,21.2 L21.2,21.2 L26,26 L25.988,4.4 Z M21.2,16.4 L6.8,16.4 L6.8,14 L21.2,14 L21.2,16.4 Z M21.2,12.8 L6.8,12.8 L6.8,10.4 L21.2,10.4 L21.2,12.8 Z M21.2,9.2 L6.8,9.2 L6.8,6.8 L21.2,6.8 L21.2,9.2 Z" id="Shape" fill="#7F7F7F" fill-rule="nonzero" mask="url(#mask-2)"></path>
            </g>
        </g>
    </g>
</svg>