<?xml version="1.0" encoding="UTF-8"?>
<svg width="22px" height="24px" viewBox="0 0 22 24" version="1.1" xmlns="http://www.w3.org/2000/svg" xmlns:xlink="http://www.w3.org/1999/xlink">
    <!-- Generator: Sketch 44.1 (41455) - http://www.bohemiancoding.com/sketch -->
    <title>share_icon</title>
    <desc>Created with Sketch.</desc>
    <defs>
        <rect id="path-1" x="0" y="0" width="28" height="28"></rect>
    </defs>
    <g id="Page-1" stroke="none" stroke-width="1" fill="none" fill-rule="evenodd">
        <g id="Desktop-HD-Copy" transform="translate(-948.000000, -768.000000)">
            <g id="share_icon" transform="translate(945.000000, 766.000000)">
                <mask id="mask-2" fill="white">
                    <use xlink:href="#path-1"></use>
                </mask>
                <g id="Mask"></g>
                <path d="M21.3333333,18.9638554 C20.4044444,18.9638554 19.5733333,19.3253012 18.9377778,19.8915663 L10.2233333,14.8915663 C10.2844444,14.6144578 10.3333333,14.3373494 10.3333333,14.0481928 C10.3333333,13.7590361 10.2844444,13.4819277 10.2233333,13.2048193 L18.84,8.25301205 C19.5,8.85542169 20.3677778,9.22891566 21.3333333,9.22891566 C23.3622222,9.22891566 25,7.61445783 25,5.61445783 C25,3.61445783 23.3622222,2 21.3333333,2 C19.3044444,2 17.6666667,3.61445783 17.6666667,5.61445783 C17.6666667,5.90361446 17.7155556,6.18072289 17.7766667,6.45783133 L9.16,11.4096386 C8.5,10.8072289 7.63222222,10.4337349 6.66666667,10.4337349 C4.63777778,10.4337349 3,12.0481928 3,14.0481928 C3,16.0481928 4.63777778,17.6626506 6.66666667,17.6626506 C7.63222222,17.6626506 8.5,17.2891566 9.16,16.686747 L17.8622222,21.6987952 C17.8011111,21.9518072 17.7644444,22.2168675 17.7644444,22.4819277 C17.7644444,24.4216867 19.3655556,26 21.3333333,26 C23.3011111,26 24.9022222,24.4216867 24.9022222,22.4819277 C24.9022222,20.5421687 23.3011111,18.9638554 21.3333333,18.9638554 Z" id="Shape" fill="#7F7F7F" fill-rule="nonzero" mask="url(#mask-2)"></path>
            </g>
        </g>
    </g>
</svg>